<svg width="75" height="63" viewBox="0 0 75 63" fill="none" xmlns="http://www.w3.org/2000/svg">
<mask id="path-1-inside-1_6476_439957" fill="white">
<path fill-rule="evenodd" clip-rule="evenodd" d="M32 0C20.9543 0 12 8.95431 12 20V29H60.5C68.5081 29 75 22.5081 75 14.5C75 6.49187 68.5081 0 60.5 0H32ZM33.8033 18.5444C35.3342 18.5444 36.5752 17.3033 36.5752 15.7724C36.5752 14.2415 35.3342 13.0005 33.8033 13.0005C32.2724 13.0005 31.0314 14.2415 31.0314 15.7724C31.0314 17.3033 32.2724 18.5444 33.8033 18.5444ZM47.0446 15.7724C47.0446 17.3033 45.8035 18.5444 44.2726 18.5444C42.7417 18.5444 41.5007 17.3033 41.5007 15.7724C41.5007 14.2415 42.7417 13.0005 44.2726 13.0005C45.8035 13.0005 47.0446 14.2415 47.0446 15.7724ZM54.7418 18.5444C56.2727 18.5444 57.5138 17.3033 57.5138 15.7724C57.5138 14.2415 56.2727 13.0005 54.7418 13.0005C53.2109 13.0005 51.9699 14.2415 51.9699 15.7724C51.9699 17.3033 53.2109 18.5444 54.7418 18.5444Z"/>
</mask>
<path fill-rule="evenodd" clip-rule="evenodd" d="M32 0C20.9543 0 12 8.95431 12 20V29H60.5C68.5081 29 75 22.5081 75 14.5C75 6.49187 68.5081 0 60.5 0H32ZM33.8033 18.5444C35.3342 18.5444 36.5752 17.3033 36.5752 15.7724C36.5752 14.2415 35.3342 13.0005 33.8033 13.0005C32.2724 13.0005 31.0314 14.2415 31.0314 15.7724C31.0314 17.3033 32.2724 18.5444 33.8033 18.5444ZM47.0446 15.7724C47.0446 17.3033 45.8035 18.5444 44.2726 18.5444C42.7417 18.5444 41.5007 17.3033 41.5007 15.7724C41.5007 14.2415 42.7417 13.0005 44.2726 13.0005C45.8035 13.0005 47.0446 14.2415 47.0446 15.7724ZM54.7418 18.5444C56.2727 18.5444 57.5138 17.3033 57.5138 15.7724C57.5138 14.2415 56.2727 13.0005 54.7418 13.0005C53.2109 13.0005 51.9699 14.2415 51.9699 15.7724C51.9699 17.3033 53.2109 18.5444 54.7418 18.5444Z" fill="#DAC7F3"/>
<path d="M12 29H10V31H12V29ZM14 20C14 10.0589 22.0589 2 32 2V-2C19.8497 -2 10 7.84974 10 20H14ZM14 29V20H10V29H14ZM60.5 27H12V31H60.5V27ZM73 14.5C73 21.4036 67.4036 27 60.5 27V31C69.6127 31 77 23.6127 77 14.5H73ZM60.5 2C67.4036 2 73 7.59644 73 14.5H77C77 5.3873 69.6127 -2 60.5 -2V2ZM32 2H60.5V-2H32V2ZM34.5752 15.7724C34.5752 16.1988 34.2296 16.5444 33.8033 16.5444V20.5444C36.4388 20.5444 38.5752 18.4079 38.5752 15.7724H34.5752ZM33.8033 15.0005C34.2296 15.0005 34.5752 15.3461 34.5752 15.7724H38.5752C38.5752 13.137 36.4388 11.0005 33.8033 11.0005V15.0005ZM33.0314 15.7724C33.0314 15.3461 33.377 15.0005 33.8033 15.0005V11.0005C31.1678 11.0005 29.0314 13.137 29.0314 15.7724H33.0314ZM33.8033 16.5444C33.377 16.5444 33.0314 16.1988 33.0314 15.7724H29.0314C29.0314 18.4079 31.1678 20.5444 33.8033 20.5444V16.5444ZM44.2726 20.5444C46.9081 20.5444 49.0446 18.4079 49.0446 15.7724H45.0446C45.0446 16.1987 44.699 16.5444 44.2726 16.5444V20.5444ZM39.5007 15.7724C39.5007 18.4079 41.6372 20.5444 44.2726 20.5444V16.5444C43.8463 16.5444 43.5007 16.1987 43.5007 15.7724H39.5007ZM44.2726 11.0005C41.6372 11.0005 39.5007 13.137 39.5007 15.7724H43.5007C43.5007 15.3461 43.8463 15.0005 44.2726 15.0005V11.0005ZM49.0446 15.7724C49.0446 13.137 46.9081 11.0005 44.2726 11.0005V15.0005C44.699 15.0005 45.0446 15.3461 45.0446 15.7724H49.0446ZM55.5138 15.7724C55.5138 16.1988 55.1681 16.5444 54.7418 16.5444V20.5444C57.3773 20.5444 59.5138 18.4079 59.5138 15.7724H55.5138ZM54.7418 15.0005C55.1681 15.0005 55.5138 15.3461 55.5138 15.7724H59.5138C59.5138 13.137 57.3773 11.0005 54.7418 11.0005V15.0005ZM53.9699 15.7724C53.9699 15.3461 54.3155 15.0005 54.7418 15.0005V11.0005C52.1064 11.0005 49.9699 13.137 49.9699 15.7724H53.9699ZM54.7418 16.5444C54.3155 16.5444 53.9699 16.1987 53.9699 15.7724H49.9699C49.9699 18.4079 52.1064 20.5444 54.7418 20.5444V16.5444Z" fill="#DAC7F3" mask="url(#path-1-inside-1_6476_439957)"/>
<mask id="path-3-inside-2_6476_439957" fill="white">
<path fill-rule="evenodd" clip-rule="evenodd" d="M43 63C54.0457 63 63 54.0457 63 43V34H14.5C6.49187 34 0 40.4919 0 48.5C0 56.5081 6.49187 63 14.5 63H43ZM41.7826 45.8121C40.2517 45.8121 39.0107 47.0531 39.0107 48.584C39.0107 50.1149 40.2517 51.356 41.7826 51.356C43.3135 51.356 44.5546 50.1149 44.5546 48.584C44.5546 47.0531 43.3135 45.8121 41.7826 45.8121ZM28.5414 48.584C28.5414 47.0531 29.7824 45.8121 31.3133 45.8121C32.8442 45.8121 34.0852 47.0531 34.0852 48.584C34.0852 50.1149 32.8442 51.356 31.3133 51.356C29.7824 51.356 28.5414 50.1149 28.5414 48.584ZM20.8441 45.8121C19.3132 45.8121 18.0722 47.0531 18.0722 48.584C18.0722 50.1149 19.3132 51.356 20.8441 51.356C22.375 51.356 23.6161 50.1149 23.6161 48.584C23.6161 47.0531 22.375 45.8121 20.8441 45.8121Z"/>
</mask>
<path fill-rule="evenodd" clip-rule="evenodd" d="M43 63C54.0457 63 63 54.0457 63 43V34H14.5C6.49187 34 0 40.4919 0 48.5C0 56.5081 6.49187 63 14.5 63H43ZM41.7826 45.8121C40.2517 45.8121 39.0107 47.0531 39.0107 48.584C39.0107 50.1149 40.2517 51.356 41.7826 51.356C43.3135 51.356 44.5546 50.1149 44.5546 48.584C44.5546 47.0531 43.3135 45.8121 41.7826 45.8121ZM28.5414 48.584C28.5414 47.0531 29.7824 45.8121 31.3133 45.8121C32.8442 45.8121 34.0852 47.0531 34.0852 48.584C34.0852 50.1149 32.8442 51.356 31.3133 51.356C29.7824 51.356 28.5414 50.1149 28.5414 48.584ZM20.8441 45.8121C19.3132 45.8121 18.0722 47.0531 18.0722 48.584C18.0722 50.1149 19.3132 51.356 20.8441 51.356C22.375 51.356 23.6161 50.1149 23.6161 48.584C23.6161 47.0531 22.375 45.8121 20.8441 45.8121Z" fill="#9F67E7"/>
<path d="M63 34H65V32H63V34ZM61 43C61 52.9411 52.9411 61 43 61V65C55.1503 65 65 55.1503 65 43H61ZM61 34V43H65V34H61ZM14.5 36H63V32H14.5V36ZM2 48.5C2 41.5964 7.59644 36 14.5 36V32C5.3873 32 -2 39.3873 -2 48.5H2ZM14.5 61C7.59644 61 2 55.4036 2 48.5H-2C-2 57.6127 5.3873 65 14.5 65V61ZM43 61H14.5V65H43V61ZM41.0107 48.584C41.0107 48.1577 41.3563 47.8121 41.7826 47.8121V43.8121C39.1472 43.8121 37.0107 45.9486 37.0107 48.584H41.0107ZM41.7826 49.356C41.3563 49.356 41.0107 49.0104 41.0107 48.584H37.0107C37.0107 51.2195 39.1472 53.356 41.7826 53.356V49.356ZM42.5546 48.584C42.5546 49.0103 42.209 49.356 41.7826 49.356V53.356C44.4181 53.356 46.5546 51.2195 46.5546 48.584H42.5546ZM41.7826 47.8121C42.209 47.8121 42.5546 48.1577 42.5546 48.584H46.5546C46.5546 45.9486 44.4181 43.8121 41.7826 43.8121V47.8121ZM31.3133 43.8121C28.6778 43.8121 26.5414 45.9486 26.5414 48.584H30.5414C30.5414 48.1577 30.887 47.8121 31.3133 47.8121V43.8121ZM36.0852 48.584C36.0852 45.9486 33.9488 43.8121 31.3133 43.8121V47.8121C31.7396 47.8121 32.0852 48.1577 32.0852 48.584H36.0852ZM31.3133 53.356C33.9488 53.356 36.0852 51.2195 36.0852 48.584H32.0852C32.0852 49.0103 31.7396 49.356 31.3133 49.356V53.356ZM26.5414 48.584C26.5414 51.2195 28.6778 53.356 31.3133 53.356V49.356C30.887 49.356 30.5414 49.0103 30.5414 48.584H26.5414ZM20.0722 48.584C20.0722 48.1577 20.4178 47.8121 20.8441 47.8121V43.8121C18.2086 43.8121 16.0722 45.9486 16.0722 48.584H20.0722ZM20.8441 49.356C20.4178 49.356 20.0722 49.0104 20.0722 48.584H16.0722C16.0722 51.2195 18.2086 53.356 20.8441 53.356V49.356ZM21.6161 48.584C21.6161 49.0104 21.2704 49.356 20.8441 49.356V53.356C23.4796 53.356 25.6161 51.2195 25.6161 48.584H21.6161ZM20.8441 47.8121C21.2704 47.8121 21.6161 48.1577 21.6161 48.584H25.6161C25.6161 45.9486 23.4796 43.8121 20.8441 43.8121V47.8121Z" fill="#9F67E7" mask="url(#path-3-inside-2_6476_439957)"/>
</svg>
