<svg width="453" height="63" viewBox="0 0 453 63" fill="none" xmlns="http://www.w3.org/2000/svg">
<path d="M445.531 52.0001C444.307 52.0001 443.263 51.7601 442.399 51.2801C441.535 50.7761 440.887 50.0681 440.455 49.1561C440.023 48.2441 439.807 47.1761 439.807 45.9521V28.4561L443.443 26.4761V45.9521C443.443 46.5281 443.527 47.0561 443.695 47.5361C443.863 48.0161 444.187 48.3881 444.667 48.6521C445.171 48.9161 445.903 49.0481 446.863 49.0481H452.803V52.0001H445.531ZM435.127 35.1521V32.2001H449.635V35.1521H435.127Z" fill="black"/>
<path d="M421.037 52.4321C419.285 52.4321 417.737 52.1321 416.393 51.5321C415.073 50.9081 414.053 50.0441 413.333 48.9401C412.613 47.8121 412.241 46.4681 412.217 44.9081H415.637C415.637 46.3721 416.129 47.5241 417.113 48.3641C418.097 49.2041 419.393 49.6241 421.001 49.6241C422.369 49.6241 423.461 49.3721 424.277 48.8681C425.117 48.3401 425.537 47.6321 425.537 46.7441C425.537 46.0481 425.297 45.4961 424.817 45.0881C424.361 44.6561 423.749 44.3201 422.981 44.0801C422.213 43.8401 421.361 43.6361 420.425 43.4681C419.513 43.2761 418.589 43.0601 417.653 42.8201C416.741 42.5561 415.901 42.2321 415.133 41.8481C414.365 41.4401 413.741 40.9001 413.261 40.2281C412.781 39.5561 412.541 38.6801 412.541 37.6001C412.541 36.4721 412.865 35.4761 413.513 34.6121C414.161 33.7241 415.073 33.0281 416.249 32.5241C417.449 32.0201 418.865 31.7681 420.497 31.7681C422.969 31.7681 424.949 32.3441 426.437 33.4961C427.949 34.6241 428.765 36.1841 428.885 38.1761H425.465C425.393 37.0241 424.913 36.1361 424.025 35.5121C423.161 34.8641 421.985 34.5401 420.497 34.5401C419.105 34.5401 418.037 34.8161 417.293 35.3681C416.573 35.9201 416.213 36.6161 416.213 37.4561C416.213 38.1041 416.453 38.6201 416.933 39.0041C417.413 39.3641 418.037 39.6521 418.805 39.8681C419.573 40.0601 420.413 40.2401 421.325 40.4081C422.261 40.5521 423.185 40.7441 424.097 40.9841C425.033 41.2241 425.885 41.5601 426.653 41.9921C427.421 42.4001 428.033 42.9641 428.489 43.6841C428.969 44.4041 429.209 45.3401 429.209 46.4921C429.209 48.3401 428.465 49.7921 426.977 50.8481C425.489 51.9041 423.509 52.4321 421.037 52.4321Z" fill="black"/>
<path d="M395.463 52.0001V32.2001H399.099V52.0001H395.463ZM388.155 52.0001V49.0481H405.903V52.0001H388.155ZM390.783 35.1521V32.2001H397.263V35.1521H390.783ZM395.211 28.8161V24.8921H399.279V28.8161H395.211Z" fill="black"/>
<path d="M375.289 52.0001C374.065 52.0001 373.021 51.7601 372.157 51.2801C371.293 50.7761 370.645 50.0681 370.213 49.1561C369.781 48.2441 369.565 47.1761 369.565 45.9521V28.4561L373.201 26.4761V45.9521C373.201 46.5281 373.285 47.0561 373.453 47.5361C373.621 48.0161 373.945 48.3881 374.425 48.6521C374.929 48.9161 375.661 49.0481 376.621 49.0481H382.561V52.0001H375.289ZM364.885 35.1521V32.2001H379.393V35.1521H364.885Z" fill="black"/>
<path d="M355.583 52.0001V39.5081C355.583 38.1161 355.187 37.0001 354.395 36.1601C353.603 35.2961 352.571 34.8641 351.299 34.8641C349.835 34.8641 348.527 35.4041 347.375 36.4841C346.247 37.5401 345.347 39.1961 344.675 41.4521L344.099 37.3841C344.843 35.5121 345.911 34.1081 347.303 33.1721C348.719 32.2361 350.255 31.7681 351.911 31.7681C353.399 31.7681 354.683 32.0921 355.763 32.7401C356.867 33.3641 357.719 34.2401 358.319 35.3681C358.919 36.4961 359.219 37.8281 359.219 39.3641V52.0001H355.583ZM341.471 52.0001V32.2001H344.927L345.107 36.6641V52.0001H341.471Z" fill="black"/>
<path d="M327.057 52.4321C325.017 52.4321 323.253 52.0241 321.765 51.2081C320.277 50.3681 319.137 49.1801 318.345 47.6441C317.553 46.0841 317.157 44.2241 317.157 42.0641C317.157 39.9041 317.553 38.0561 318.345 36.5201C319.161 34.9841 320.313 33.8081 321.801 32.9921C323.313 32.1761 325.113 31.7681 327.201 31.7681C330.393 31.7681 332.769 32.6561 334.329 34.4321C335.889 36.1841 336.573 38.5961 336.381 41.6681H320.037L320.073 38.9321L332.673 38.9681C332.577 37.6961 332.025 36.6761 331.017 35.9081C330.009 35.1401 328.737 34.7561 327.201 34.7561C325.137 34.7561 323.553 35.4041 322.449 36.7001C321.345 37.9961 320.793 39.8321 320.793 42.2081C320.793 43.6241 321.033 44.8841 321.513 45.9881C322.017 47.0681 322.737 47.9081 323.673 48.5081C324.609 49.1081 325.737 49.4081 327.057 49.4081C328.617 49.4081 329.913 49.0361 330.945 48.2921C332.001 47.5481 332.649 46.5401 332.889 45.2681H336.525C336.213 47.5001 335.217 49.2521 333.537 50.5241C331.857 51.7961 329.697 52.4321 327.057 52.4321Z" fill="black"/>
<path d="M301.807 52.0001V32.2001H305.443V52.0001H301.807ZM294.499 52.0001V49.0481H312.247V52.0001H294.499ZM297.127 35.1521V32.2001H303.607V35.1521H297.127ZM301.555 28.8161V24.8921H305.623V28.8161H301.555Z" fill="black"/>
<path d="M280.589 52.4321C278.549 52.4321 276.773 52.0121 275.261 51.1721C273.773 50.3081 272.621 49.1081 271.805 47.5721C270.989 46.0121 270.581 44.1881 270.581 42.1001C270.581 39.9641 271.001 38.1281 271.841 36.5921C272.681 35.0321 273.857 33.8441 275.369 33.0281C276.881 32.1881 278.645 31.7681 280.661 31.7681C282.269 31.7681 283.709 32.0681 284.981 32.6681C286.277 33.2441 287.321 34.0721 288.113 35.1521C288.929 36.2321 289.397 37.5161 289.517 39.0041H285.881C285.689 37.6601 285.113 36.6281 284.153 35.9081C283.217 35.1641 282.053 34.7921 280.661 34.7921C279.365 34.7921 278.237 35.0921 277.277 35.6921C276.317 36.2681 275.573 37.0961 275.045 38.1761C274.517 39.2561 274.253 40.5641 274.253 42.1001C274.253 44.3801 274.829 46.1681 275.981 47.4641C277.157 48.7601 278.693 49.4081 280.589 49.4081C281.453 49.4081 282.257 49.2401 283.001 48.9041C283.745 48.5681 284.381 48.0881 284.909 47.4641C285.437 46.8161 285.797 46.0721 285.989 45.2321H289.661C289.421 46.7201 288.869 48.0041 288.005 49.0841C287.165 50.1401 286.097 50.9681 284.801 51.5681C283.529 52.1441 282.125 52.4321 280.589 52.4321Z" fill="black"/>
<path d="M257.138 52.4321C255.386 52.4321 253.838 52.1321 252.494 51.5321C251.174 50.9081 250.154 50.0441 249.434 48.9401C248.714 47.8121 248.342 46.4681 248.318 44.9081H251.738C251.738 46.3721 252.23 47.5241 253.214 48.3641C254.198 49.2041 255.494 49.6241 257.102 49.6241C258.47 49.6241 259.562 49.3721 260.378 48.8681C261.218 48.3401 261.638 47.6321 261.638 46.7441C261.638 46.0481 261.398 45.4961 260.918 45.0881C260.462 44.6561 259.85 44.3201 259.082 44.0801C258.314 43.8401 257.462 43.6361 256.526 43.4681C255.614 43.2761 254.69 43.0601 253.754 42.8201C252.842 42.5561 252.002 42.2321 251.234 41.8481C250.466 41.4401 249.842 40.9001 249.362 40.2281C248.882 39.5561 248.642 38.6801 248.642 37.6001C248.642 36.4721 248.966 35.4761 249.614 34.6121C250.262 33.7241 251.174 33.0281 252.35 32.5241C253.55 32.0201 254.966 31.7681 256.598 31.7681C259.07 31.7681 261.05 32.3441 262.538 33.4961C264.05 34.6241 264.866 36.1841 264.986 38.1761H261.566C261.494 37.0241 261.014 36.1361 260.126 35.5121C259.262 34.8641 258.086 34.5401 256.598 34.5401C255.206 34.5401 254.138 34.8161 253.394 35.3681C252.674 35.9201 252.314 36.6161 252.314 37.4561C252.314 38.1041 252.554 38.6201 253.034 39.0041C253.514 39.3641 254.138 39.6521 254.906 39.8681C255.674 40.0601 256.514 40.2401 257.426 40.4081C258.362 40.5521 259.286 40.7441 260.198 40.9841C261.134 41.2241 261.986 41.5601 262.754 41.9921C263.522 42.4001 264.134 42.9641 264.59 43.6841C265.07 44.4041 265.31 45.3401 265.31 46.4921C265.31 48.3401 264.566 49.7921 263.078 50.8481C261.59 51.9041 259.61 52.4321 257.138 52.4321Z" fill="black"/>
<path d="M227.676 42.4599V39.2559H238.692V42.4599H227.676Z" fill="black"/>
<path d="M214.954 52.0001L214.81 47.5001V39.0401C214.81 37.6241 214.342 36.5201 213.406 35.7281C212.494 34.9121 211.234 34.5041 209.626 34.5041C208.066 34.5041 206.794 34.8641 205.81 35.5841C204.826 36.2801 204.286 37.2521 204.19 38.5001H200.626C200.746 37.0841 201.202 35.8841 201.994 34.9001C202.786 33.8921 203.842 33.1241 205.162 32.5961C206.482 32.0441 208.006 31.7681 209.734 31.7681C211.51 31.7681 213.046 32.0681 214.342 32.6681C215.638 33.2441 216.634 34.0841 217.33 35.1881C218.05 36.2921 218.41 37.6361 218.41 39.2201V52.0001H214.954ZM207.79 52.4321C206.494 52.4321 205.354 52.2041 204.37 51.7481C203.386 51.2681 202.618 50.5961 202.066 49.7321C201.514 48.8441 201.238 47.8121 201.238 46.6361C201.238 44.5961 202.018 43.0121 203.578 41.8841C205.162 40.7561 207.37 40.1921 210.202 40.1921H215.278V42.8921H210.058C208.426 42.8921 207.142 43.2041 206.206 43.8281C205.294 44.4521 204.838 45.3281 204.838 46.4561C204.838 47.3921 205.162 48.1241 205.81 48.6521C206.482 49.1801 207.382 49.4441 208.51 49.4441C209.95 49.4441 211.222 49.0601 212.326 48.2921C213.454 47.5001 214.366 46.4201 215.062 45.0521L215.458 47.7161C214.834 49.2281 213.874 50.3921 212.578 51.2081C211.282 52.0241 209.686 52.4321 207.79 52.4321Z" fill="black"/>
<path d="M180.848 42.4599V39.2559H191.864V42.4599H180.848Z" fill="black"/>
<path d="M163.158 52.4321C161.118 52.4321 159.354 52.0241 157.866 51.2081C156.378 50.3681 155.238 49.1801 154.446 47.6441C153.654 46.0841 153.258 44.2241 153.258 42.0641C153.258 39.9041 153.654 38.0561 154.446 36.5201C155.262 34.9841 156.414 33.8081 157.902 32.9921C159.414 32.1761 161.214 31.7681 163.302 31.7681C166.494 31.7681 168.87 32.6561 170.43 34.4321C171.99 36.1841 172.674 38.5961 172.482 41.6681H156.138L156.174 38.9321L168.774 38.9681C168.678 37.6961 168.126 36.6761 167.118 35.9081C166.11 35.1401 164.838 34.7561 163.302 34.7561C161.238 34.7561 159.654 35.4041 158.55 36.7001C157.446 37.9961 156.894 39.8321 156.894 42.2081C156.894 43.6241 157.134 44.8841 157.614 45.9881C158.118 47.0681 158.838 47.9081 159.774 48.5081C160.71 49.1081 161.838 49.4081 163.158 49.4081C164.718 49.4081 166.014 49.0361 167.046 48.2921C168.102 47.5481 168.75 46.5401 168.99 45.2681H172.626C172.314 47.5001 171.318 49.2521 169.638 50.5241C167.958 51.7961 165.798 52.4321 163.158 52.4321Z" fill="black"/>
<path d="M141.148 52.0001C139.924 52.0001 138.88 51.7601 138.016 51.2801C137.152 50.7761 136.504 50.0681 136.072 49.1561C135.64 48.2441 135.424 47.1761 135.424 45.9521V28.4561L139.06 26.4761V45.9521C139.06 46.5281 139.144 47.0561 139.312 47.5361C139.48 48.0161 139.804 48.3881 140.284 48.6521C140.788 48.9161 141.52 49.0481 142.48 49.0481H148.42V52.0001H141.148ZM130.744 35.1521V32.2001H145.252V35.1521H130.744Z" fill="black"/>
<path d="M121.298 52.0001L121.154 47.5001V39.0401C121.154 37.6241 120.686 36.5201 119.75 35.7281C118.838 34.9121 117.578 34.5041 115.97 34.5041C114.41 34.5041 113.138 34.8641 112.154 35.5841C111.17 36.2801 110.63 37.2521 110.534 38.5001H106.97C107.09 37.0841 107.546 35.8841 108.338 34.9001C109.13 33.8921 110.186 33.1241 111.506 32.5961C112.826 32.0441 114.35 31.7681 116.078 31.7681C117.854 31.7681 119.39 32.0681 120.686 32.6681C121.982 33.2441 122.978 34.0841 123.674 35.1881C124.394 36.2921 124.754 37.6361 124.754 39.2201V52.0001H121.298ZM114.134 52.4321C112.838 52.4321 111.698 52.2041 110.714 51.7481C109.73 51.2681 108.962 50.5961 108.41 49.7321C107.858 48.8441 107.582 47.8121 107.582 46.6361C107.582 44.5961 108.362 43.0121 109.922 41.8841C111.506 40.7561 113.714 40.1921 116.546 40.1921H121.622V42.8921H116.402C114.77 42.8921 113.486 43.2041 112.55 43.8281C111.638 44.4521 111.182 45.3281 111.182 46.4561C111.182 47.3921 111.506 48.1241 112.154 48.6521C112.826 49.1801 113.726 49.4441 114.854 49.4441C116.294 49.4441 117.566 49.0601 118.67 48.2921C119.798 47.5001 120.71 46.4201 121.406 45.0521L121.802 47.7161C121.178 49.2281 120.218 50.3921 118.922 51.2081C117.626 52.0241 116.03 52.4321 114.134 52.4321Z" fill="black"/>
<path d="M91.656 31.768C93.024 31.768 94.272 32.044 95.4 32.596C96.528 33.124 97.44 33.868 98.136 34.828V25.54H101.736V52H98.316L98.208 49.228C97.512 50.188 96.588 50.968 95.436 51.568C94.308 52.144 93.048 52.432 91.656 52.432C89.904 52.432 88.356 51.988 87.012 51.1C85.668 50.212 84.612 48.988 83.844 47.428C83.1 45.868 82.728 44.092 82.728 42.1C82.728 40.084 83.1 38.296 83.844 36.736C84.612 35.176 85.668 33.964 87.012 33.1C88.356 32.212 89.904 31.768 91.656 31.768ZM92.448 49.372C93.744 49.372 94.896 49.012 95.904 48.292C96.912 47.548 97.656 46.552 98.136 45.304V38.86C97.656 37.588 96.912 36.604 95.904 35.908C94.896 35.188 93.744 34.828 92.448 34.828C91.248 34.828 90.192 35.14 89.28 35.764C88.368 36.364 87.648 37.216 87.12 38.32C86.616 39.4 86.364 40.66 86.364 42.1C86.364 43.516 86.616 44.776 87.12 45.88C87.648 46.96 88.368 47.812 89.28 48.436C90.192 49.06 91.248 49.372 92.448 49.372Z" fill="black"/>
<mask id="path-17-inside-1_6476_439635" fill="white">
<path fill-rule="evenodd" clip-rule="evenodd" d="M32 0C20.9543 0 12 8.95431 12 20V29H60.5C68.5081 29 75 22.5081 75 14.5C75 6.49187 68.5081 0 60.5 0H32ZM33.8033 18.5444C35.3342 18.5444 36.5752 17.3033 36.5752 15.7724C36.5752 14.2415 35.3342 13.0005 33.8033 13.0005C32.2724 13.0005 31.0314 14.2415 31.0314 15.7724C31.0314 17.3033 32.2724 18.5444 33.8033 18.5444ZM47.0446 15.7724C47.0446 17.3033 45.8035 18.5444 44.2726 18.5444C42.7417 18.5444 41.5007 17.3033 41.5007 15.7724C41.5007 14.2415 42.7417 13.0005 44.2726 13.0005C45.8035 13.0005 47.0446 14.2415 47.0446 15.7724ZM54.7418 18.5444C56.2727 18.5444 57.5138 17.3033 57.5138 15.7724C57.5138 14.2415 56.2727 13.0005 54.7418 13.0005C53.2109 13.0005 51.9699 14.2415 51.9699 15.7724C51.9699 17.3033 53.2109 18.5444 54.7418 18.5444Z"/>
</mask>
<path fill-rule="evenodd" clip-rule="evenodd" d="M32 0C20.9543 0 12 8.95431 12 20V29H60.5C68.5081 29 75 22.5081 75 14.5C75 6.49187 68.5081 0 60.5 0H32ZM33.8033 18.5444C35.3342 18.5444 36.5752 17.3033 36.5752 15.7724C36.5752 14.2415 35.3342 13.0005 33.8033 13.0005C32.2724 13.0005 31.0314 14.2415 31.0314 15.7724C31.0314 17.3033 32.2724 18.5444 33.8033 18.5444ZM47.0446 15.7724C47.0446 17.3033 45.8035 18.5444 44.2726 18.5444C42.7417 18.5444 41.5007 17.3033 41.5007 15.7724C41.5007 14.2415 42.7417 13.0005 44.2726 13.0005C45.8035 13.0005 47.0446 14.2415 47.0446 15.7724ZM54.7418 18.5444C56.2727 18.5444 57.5138 17.3033 57.5138 15.7724C57.5138 14.2415 56.2727 13.0005 54.7418 13.0005C53.2109 13.0005 51.9699 14.2415 51.9699 15.7724C51.9699 17.3033 53.2109 18.5444 54.7418 18.5444Z" fill="#DAC7F3"/>
<path d="M12 29H10V31H12V29ZM14 20C14 10.0589 22.0589 2 32 2V-2C19.8497 -2 10 7.84974 10 20H14ZM14 29V20H10V29H14ZM60.5 27H12V31H60.5V27ZM73 14.5C73 21.4036 67.4036 27 60.5 27V31C69.6127 31 77 23.6127 77 14.5H73ZM60.5 2C67.4036 2 73 7.59644 73 14.5H77C77 5.3873 69.6127 -2 60.5 -2V2ZM32 2H60.5V-2H32V2ZM34.5752 15.7724C34.5752 16.1988 34.2296 16.5444 33.8033 16.5444V20.5444C36.4388 20.5444 38.5752 18.4079 38.5752 15.7724H34.5752ZM33.8033 15.0005C34.2296 15.0005 34.5752 15.3461 34.5752 15.7724H38.5752C38.5752 13.137 36.4388 11.0005 33.8033 11.0005V15.0005ZM33.0314 15.7724C33.0314 15.3461 33.377 15.0005 33.8033 15.0005V11.0005C31.1678 11.0005 29.0314 13.137 29.0314 15.7724H33.0314ZM33.8033 16.5444C33.377 16.5444 33.0314 16.1988 33.0314 15.7724H29.0314C29.0314 18.4079 31.1678 20.5444 33.8033 20.5444V16.5444ZM44.2726 20.5444C46.9081 20.5444 49.0446 18.4079 49.0446 15.7724H45.0446C45.0446 16.1987 44.699 16.5444 44.2726 16.5444V20.5444ZM39.5007 15.7724C39.5007 18.4079 41.6372 20.5444 44.2726 20.5444V16.5444C43.8463 16.5444 43.5007 16.1987 43.5007 15.7724H39.5007ZM44.2726 11.0005C41.6372 11.0005 39.5007 13.137 39.5007 15.7724H43.5007C43.5007 15.3461 43.8463 15.0005 44.2726 15.0005V11.0005ZM49.0446 15.7724C49.0446 13.137 46.9081 11.0005 44.2726 11.0005V15.0005C44.699 15.0005 45.0446 15.3461 45.0446 15.7724H49.0446ZM55.5138 15.7724C55.5138 16.1988 55.1681 16.5444 54.7418 16.5444V20.5444C57.3773 20.5444 59.5138 18.4079 59.5138 15.7724H55.5138ZM54.7418 15.0005C55.1681 15.0005 55.5138 15.3461 55.5138 15.7724H59.5138C59.5138 13.137 57.3773 11.0005 54.7418 11.0005V15.0005ZM53.9699 15.7724C53.9699 15.3461 54.3155 15.0005 54.7418 15.0005V11.0005C52.1064 11.0005 49.9699 13.137 49.9699 15.7724H53.9699ZM54.7418 16.5444C54.3155 16.5444 53.9699 16.1987 53.9699 15.7724H49.9699C49.9699 18.4079 52.1064 20.5444 54.7418 20.5444V16.5444Z" fill="#DAC7F3" mask="url(#path-17-inside-1_6476_439635)"/>
<mask id="path-19-inside-2_6476_439635" fill="white">
<path fill-rule="evenodd" clip-rule="evenodd" d="M43 63C54.0457 63 63 54.0457 63 43V34H14.5C6.49187 34 0 40.4919 0 48.5C0 56.5081 6.49187 63 14.5 63H43ZM41.7826 45.8121C40.2517 45.8121 39.0107 47.0531 39.0107 48.584C39.0107 50.1149 40.2517 51.356 41.7826 51.356C43.3135 51.356 44.5546 50.1149 44.5546 48.584C44.5546 47.0531 43.3135 45.8121 41.7826 45.8121ZM28.5414 48.584C28.5414 47.0531 29.7824 45.8121 31.3133 45.8121C32.8442 45.8121 34.0852 47.0531 34.0852 48.584C34.0852 50.1149 32.8442 51.356 31.3133 51.356C29.7824 51.356 28.5414 50.1149 28.5414 48.584ZM20.8441 45.8121C19.3132 45.8121 18.0722 47.0531 18.0722 48.584C18.0722 50.1149 19.3132 51.356 20.8441 51.356C22.375 51.356 23.6161 50.1149 23.6161 48.584C23.6161 47.0531 22.375 45.8121 20.8441 45.8121Z"/>
</mask>
<path fill-rule="evenodd" clip-rule="evenodd" d="M43 63C54.0457 63 63 54.0457 63 43V34H14.5C6.49187 34 0 40.4919 0 48.5C0 56.5081 6.49187 63 14.5 63H43ZM41.7826 45.8121C40.2517 45.8121 39.0107 47.0531 39.0107 48.584C39.0107 50.1149 40.2517 51.356 41.7826 51.356C43.3135 51.356 44.5546 50.1149 44.5546 48.584C44.5546 47.0531 43.3135 45.8121 41.7826 45.8121ZM28.5414 48.584C28.5414 47.0531 29.7824 45.8121 31.3133 45.8121C32.8442 45.8121 34.0852 47.0531 34.0852 48.584C34.0852 50.1149 32.8442 51.356 31.3133 51.356C29.7824 51.356 28.5414 50.1149 28.5414 48.584ZM20.8441 45.8121C19.3132 45.8121 18.0722 47.0531 18.0722 48.584C18.0722 50.1149 19.3132 51.356 20.8441 51.356C22.375 51.356 23.6161 50.1149 23.6161 48.584C23.6161 47.0531 22.375 45.8121 20.8441 45.8121Z" fill="#9F67E7"/>
<path d="M63 34H65V32H63V34ZM61 43C61 52.9411 52.9411 61 43 61V65C55.1503 65 65 55.1503 65 43H61ZM61 34V43H65V34H61ZM14.5 36H63V32H14.5V36ZM2 48.5C2 41.5964 7.59644 36 14.5 36V32C5.3873 32 -2 39.3873 -2 48.5H2ZM14.5 61C7.59644 61 2 55.4036 2 48.5H-2C-2 57.6127 5.3873 65 14.5 65V61ZM43 61H14.5V65H43V61ZM41.0107 48.584C41.0107 48.1577 41.3563 47.8121 41.7826 47.8121V43.8121C39.1472 43.8121 37.0107 45.9486 37.0107 48.584H41.0107ZM41.7826 49.356C41.3563 49.356 41.0107 49.0104 41.0107 48.584H37.0107C37.0107 51.2195 39.1472 53.356 41.7826 53.356V49.356ZM42.5546 48.584C42.5546 49.0103 42.209 49.356 41.7826 49.356V53.356C44.4181 53.356 46.5546 51.2195 46.5546 48.584H42.5546ZM41.7826 47.8121C42.209 47.8121 42.5546 48.1577 42.5546 48.584H46.5546C46.5546 45.9486 44.4181 43.8121 41.7826 43.8121V47.8121ZM31.3133 43.8121C28.6778 43.8121 26.5414 45.9486 26.5414 48.584H30.5414C30.5414 48.1577 30.887 47.8121 31.3133 47.8121V43.8121ZM36.0852 48.584C36.0852 45.9486 33.9488 43.8121 31.3133 43.8121V47.8121C31.7396 47.8121 32.0852 48.1577 32.0852 48.584H36.0852ZM31.3133 53.356C33.9488 53.356 36.0852 51.2195 36.0852 48.584H32.0852C32.0852 49.0103 31.7396 49.356 31.3133 49.356V53.356ZM26.5414 48.584C26.5414 51.2195 28.6778 53.356 31.3133 53.356V49.356C30.887 49.356 30.5414 49.0103 30.5414 48.584H26.5414ZM20.0722 48.584C20.0722 48.1577 20.4178 47.8121 20.8441 47.8121V43.8121C18.2086 43.8121 16.0722 45.9486 16.0722 48.584H20.0722ZM20.8441 49.356C20.4178 49.356 20.0722 49.0104 20.0722 48.584H16.0722C16.0722 51.2195 18.2086 53.356 20.8441 53.356V49.356ZM21.6161 48.584C21.6161 49.0104 21.2704 49.356 20.8441 49.356V53.356C23.4796 53.356 25.6161 51.2195 25.6161 48.584H21.6161ZM20.8441 47.8121C21.2704 47.8121 21.6161 48.1577 21.6161 48.584H25.6161C25.6161 45.9486 23.4796 43.8121 20.8441 43.8121V47.8121Z" fill="#9F67E7" mask="url(#path-19-inside-2_6476_439635)"/>
</svg>
